<?xml version="1.0" encoding="utf-8"?>
<!-- Generator: Adobe Illustrator 16.0.0, SVG Export Plug-In . SVG Version: 6.00 Build 0)  -->
<!DOCTYPE svg PUBLIC "-//W3C//DTD SVG 1.1//EN" "http://www.w3.org/Graphics/SVG/1.1/DTD/svg11.dtd">
<svg version="1.1" id="Capa_1" xmlns="http://www.w3.org/2000/svg" xmlns:xlink="http://www.w3.org/1999/xlink" x="0px" y="0px"
	 width="612px" height="612px" viewBox="0 0 612 612" enable-background="new 0 0 612 612" xml:space="preserve">
<g>
	<g>
		<path fill="#8FC342" d="M306,102c-112.667,0-204,91.333-204,204c0,112.667,91.333,204,204,204c112.667,0,204-91.333,204-204
			C509.871,193.387,418.613,102.129,306,102z M306,489.6c-101.399,0-183.6-82.2-183.6-183.6S204.601,122.4,306,122.4
			S489.6,204.601,489.6,306C489.481,407.351,407.351,489.481,306,489.6z"/>
	</g>
</g>
<g>
	<g>
		<path fill="#8FC342" d="M596.526,63.138c-9.355-3.899-20.141-1.754-27.295,5.426c-24.945,24.818-38.927,58.581-38.831,93.769
			V295.8c0.053,12.921,8.217,24.417,20.399,28.724V520.2c0,16.899,13.7,30.6,30.601,30.6c16.899,0,30.6-13.7,30.6-30.6V86.282
			C612.021,76.141,605.905,66.995,596.526,63.138z M591.6,520.2c0,5.633-4.566,10.2-10.199,10.2c-5.634,0-10.2-4.567-10.2-10.2
			V326.4H591.6V520.2z M591.6,306H561c-5.633,0-10.2-4.567-10.2-10.2V162.333c-0.076-29.772,11.757-58.339,32.864-79.335
			c0.822-0.88,1.969-1.385,3.173-1.397c0.652,0.007,1.296,0.143,1.896,0.398c1.776,0.67,2.928,2.396,2.866,4.294V306z"/>
	</g>
</g>
<g>
	<g>
		<path fill="#8FC342" d="M224.4,234.6c-22.533,0-40.8,18.267-40.8,40.8s18.267,40.8,40.8,40.8s40.8-18.267,40.8-40.8
			S246.933,234.6,224.4,234.6z M224.4,295.8c-11.267,0-20.4-9.133-20.4-20.4s9.133-20.4,20.4-20.4s20.4,9.133,20.4,20.4
			S235.667,295.8,224.4,295.8z"/>
	</g>
</g>
<g>
	<g>
		<path fill="#8FC342" d="M306.877,241.455l-17.931-17.932c-2.152-2.141-3.357-5.054-3.346-8.089
			c-0.023-17.572-14.262-31.811-31.834-31.834h-40.8c-8.439,0.021-16.528,3.371-22.511,9.323l-38.332,38.332
			c-5.99,5.957-9.347,14.063-9.323,22.511v43.269c-0.024,8.448,3.333,16.555,9.323,22.511l17.931,17.932
			c2.152,2.142,3.357,5.055,3.346,8.09c0.023,17.571,14.262,31.811,31.834,31.834h20.4c8.439-0.021,16.528-3.373,22.511-9.323
			l28.132-28.132c2.152-2.135,5.058-3.336,8.088-3.346c17.572-0.022,31.811-14.262,31.834-31.834v-40.8
			C316.225,255.518,312.867,247.411,306.877,241.455z M295.8,304.766c-0.005,6.313-5.122,11.43-11.434,11.435
			c-8.439,0.021-16.528,3.371-22.511,9.323l-28.132,28.131c-2.152,2.135-5.058,3.337-8.088,3.346h-20.4
			c-6.313-0.005-11.429-5.121-11.435-11.434c0.024-8.449-3.333-16.555-9.323-22.512l-17.932-17.932
			c-2.152-2.141-3.357-5.054-3.345-8.089v-43.269c-0.01-3.034,1.193-5.948,3.345-8.088l38.332-38.332
			c2.152-2.134,5.058-3.337,8.089-3.346h40.8c6.313,0.005,11.429,5.122,11.435,11.434c-0.024,8.448,3.333,16.555,9.323,22.512
			l17.932,17.932c2.152,2.141,3.357,5.054,3.345,8.088V304.766z"/>
	</g>
</g>
<g>
	<g>
		<path fill="#8FC342" d="M405.012,329.389l-40.801-40.8c-3.984-3.983-10.441-3.981-14.425,0.003
			c-1.911,1.912-2.986,4.506-2.986,7.208v20.4c0,5.633-4.566,10.2-10.2,10.2C319.7,326.4,306,340.1,306,357
			c0,5.633-4.567,10.2-10.2,10.2c-16.9,0-30.6,13.7-30.6,30.6c0,5.633-4.567,10.2-10.2,10.2h-20.4
			c-5.633,0.001-10.199,4.568-10.198,10.202c0,2.705,1.075,5.297,2.986,7.209l40.8,40.8c1.913,1.913,4.506,2.989,7.211,2.989h20.4
			c16.9,0,30.601-13.7,30.601-30.601c0-5.633,4.566-10.199,10.199-10.199c16.9,0,30.601-13.7,30.601-30.601
			c0-5.633,4.566-10.2,10.2-10.2C394.3,387.6,408,373.9,408,357v-20.4C408,333.895,406.924,331.301,405.012,329.389z M387.6,357
			c0,5.633-4.566,10.2-10.199,10.2c-16.9,0-30.601,13.7-30.601,30.6c0,5.633-4.566,10.2-10.2,10.2c-16.899,0-30.6,13.7-30.6,30.6
			c0,5.634-4.567,10.2-10.2,10.2h-16.177l-20.655-20.655c15.237-1.992,26.633-14.977,26.632-30.345c0-5.633,4.567-10.2,10.2-10.2
			c16.9,0,30.601-13.699,30.601-30.6c0-5.633,4.566-10.2,10.199-10.2c15.368,0.001,28.353-11.395,30.346-26.632l20.654,20.654V357z"
			/>
	</g>
</g>
<g>
	<g>
		<path fill="#8FC342" d="M457.766,249.533l-1.754-1.744l-51-51l-42.555-42.544c-15.253-15.246-39.977-15.242-55.223,0.011
			c-15.247,15.251-15.242,39.976,0.01,55.223l1.755,1.744l51,51l42.554,42.544c15.253,15.246,39.977,15.242,55.224-0.01
			C473.022,289.503,473.019,264.779,457.766,249.533z M322.911,167.525c3.34-2.784,7.547-4.313,11.894-4.325h0.041
			c4.941,0.015,9.68,1.976,13.188,5.457l25.143,25.143h-52.652C313.928,185.885,314.996,174.122,322.911,167.525z M340.823,214.2
			h52.754l30.6,30.6h-52.754L340.823,214.2z M442.088,291.475c-3.339,2.783-7.546,4.313-11.893,4.325h-0.041
			c-4.944-0.017-9.683-1.98-13.188-5.467L391.823,265.2h52.652C451.072,273.115,450.004,284.878,442.088,291.475z"/>
	</g>
</g>
<g>
	<g>
		<path fill="#8FC342" d="M81.6,61.2v81.6H61.2V61.2H40.8v81.6H20.4V61.2H0v132.6c0.05,15.967,7.605,30.981,20.4,40.535V520.2
			c0,16.899,13.7,30.6,30.6,30.6s30.6-13.7,30.6-30.6V234.335c12.794-9.554,20.35-24.568,20.4-40.535V61.2H81.6z M61.2,520.2
			c0,5.633-4.567,10.2-10.2,10.2s-10.2-4.567-10.2-10.2V244.8h20.4V520.2z M81.6,193.8c0,16.9-13.7,30.6-30.6,30.6
			s-30.6-13.7-30.6-30.6v-30.6h61.2V193.8z"/>
	</g>
</g>
</svg>
