<?xml version="1.0" encoding="utf-8"?>
<!-- Generator: Adobe Illustrator 16.0.0, SVG Export Plug-In . SVG Version: 6.00 Build 0)  -->
<!DOCTYPE svg PUBLIC "-//W3C//DTD SVG 1.1//EN" "http://www.w3.org/Graphics/SVG/1.1/DTD/svg11.dtd">
<svg version="1.1" id="Capa_1" xmlns="http://www.w3.org/2000/svg" xmlns:xlink="http://www.w3.org/1999/xlink" x="0px" y="0px"
	 width="512px" height="512px" viewBox="0 0 512 512" enable-background="new 0 0 512 512" xml:space="preserve">
<path fill="#8FC342" d="M440.779,465.686c-15.374,7.688-28.64,14.313-56.89,14.313c-28.266,0-41.531-6.641-56.905-14.313
	c-16.594-8.297-35.406-17.687-71.204-17.687c-35.75,0-54.546,9.405-71.108,17.687c-15.343,7.688-28.594,14.313-56.796,14.313
	c-28.188,0-41.437-6.625-56.781-14.313c-16.562-8.281-35.343-17.687-71.094-17.687v31.999c28.188,0,41.437,6.626,56.781,14.313
	c16.562,8.281,35.343,17.688,71.094,17.688c35.75,0,54.547-9.406,71.109-17.688c15.343-7.687,28.594-14.313,56.796-14.313
	c28.25,0,41.516,6.626,56.89,14.313c16.594,8.298,35.406,17.688,71.219,17.688c35.797,0,54.608-9.391,71.203-17.688
	c15.374-7.672,28.64-14.313,56.905-14.313v-31.999C476.186,447.999,457.373,457.39,440.779,465.686z"/>
<path fill="#8FC342" d="M16.002,288h47.999v142.29c2.366,1.139,4.845,2.273,7.094,3.397c8.021,4.02,15.595,7.682,24.906,10.324
	V271.999c0-8.843-7.157-16-16-16H52.939L256,39.392L459.062,256h-27.063c-8.844,0-16,7.157-16,16v171.974
	c9.256-2.642,16.787-6.291,24.782-10.287c2.287-1.145,4.808-2.296,7.219-3.454V288h47.999c6.376,0,12.141-3.781,14.688-9.641
	c2.531-5.844,1.344-12.656-3.015-17.297L448,197.413V32.002h-96v63.011L267.672,5.064c-3.037-3.24-7.369-5.068-11.697-5.063
	c-4.312,0.006-8.621,1.834-11.647,5.063L4.33,261.063c-4.359,4.641-5.547,11.453-3.015,17.297C3.861,284.219,9.627,288,16.002,288
	L16.002,288z M384,64.001h31.999v99.279L384,129.147V64.001z"/>
</svg>
