<?xml version="1.0" encoding="utf-8"?>
<!-- Generator: Adobe Illustrator 16.0.0, SVG Export Plug-In . SVG Version: 6.00 Build 0)  -->
<!DOCTYPE svg PUBLIC "-//W3C//DTD SVG 1.1//EN" "http://www.w3.org/Graphics/SVG/1.1/DTD/svg11.dtd">
<svg version="1.1" id="Layer_5" xmlns="http://www.w3.org/2000/svg" xmlns:xlink="http://www.w3.org/1999/xlink" x="0px" y="0px"
	 width="512px" height="512px" viewBox="0 0 512 512" enable-background="new 0 0 512 512" xml:space="preserve">
<path fill="#8FC342" d="M504,256v-80c0-35.032-25.16-64.264-58.352-70.664C456.888,95.088,464,80.376,464,64
	c0-30.872-25.128-56-56-56s-56,25.128-56,56c0,15.664,6.48,29.824,16.888,40H260c-11.472,0-21.336,6.952-25.656,16.856
	l-66.96,41.208c-6.312,3.88-13.56,5.936-20.968,5.936h-3.296c10.4-10.176,16.88-24.336,16.88-40c0-30.872-25.128-56-56-56
	s-56,25.128-56,56c0,17.888,8.464,33.808,21.568,44.072C33.92,183.32,8,216.688,8,256v56c0,17.648,14.352,32,32,32h8v112
	c-22.056,0-40,17.944-40,40v8h192v-8c0-22.056-17.944-40-40-40V258.111c0-13.624,6.832-26.175,18.264-33.575L278,160h66
	c4.416,0,8,3.584,8,8l0.016,256H352c-22.056,0-40,17.944-40,40v40h192v-40c0-22.056-17.944-40-40-40V296
	C486.056,296,504,278.057,504,256z M368,64c0-22.056,17.944-40,40-40s40,17.944,40,40s-17.944,40-40,40S368,86.056,368,64z M64,128
	c0-22.056,17.944-40,40-40s40,17.944,40,40s-17.944,40-40,40S64,150.056,64,128z M182.632,488H25.368c3.304-9.313,12.2-16,22.632-16
	h112C170.432,472,179.328,478.688,182.632,488z M169.576,211.096C153.56,221.464,144,239.04,144,258.111V456h-32V312H96v144H64V240
	H48v88h-8c-8.824,0-16-7.176-16-16v-56c0-39.704,32.296-72,72-72h8h42.416c10.36,0,20.504-2.864,29.352-8.304l57.616-35.456
	c2.656,8.536,9.216,15.271,17.648,18.152L169.576,211.096z M488,464v24H328v-24c0-13.232,10.768-24,24-24h112
	C477.232,440,488,450.768,488,464z M448,160v264h-32V240h-16v184h-31.984L368,168c0-13.232-10.768-24-24-24h-84
	c-6.616,0-12-5.384-12-12s5.384-12,12-12h172c30.872,0,56,25.128,56,56v80c0,13.232-10.768,24-24,24V160H448z"/>
<path fill="#8FC342" d="M264,48c0-22.056-17.944-40-40-40h-32c-22.056,0-40,17.944-40,40v40h72C246.056,88,264,70.056,264,48z
	 M168,48c0-13.232,10.768-24,24-24h32c13.232,0,24,10.768,24,24s-10.768,24-24,24h-56V48z"/>
<path fill="#8FC342" d="M184,40h16v16h-16V40z"/>
<path fill="#8FC342" d="M216,40h16v16h-16V40z"/>
<path fill="#8FC342" d="M336,232v-40h-72c-22.056,0-40,17.944-40,40s17.944,40,40,40h32C318.056,272,336,254.056,336,232z M320,232
	c0,13.232-10.768,24-24,24h-32c-13.232,0-24-10.768-24-24s10.768-24,24-24h56V232z"/>
<path fill="#8FC342" d="M288,224h16v16h-16V224z"/>
<path fill="#8FC342" d="M256,224h16v16h-16V224z"/>
</svg>
